<svg xmlns="http://www.w3.org/2000/svg" version="1.1" xmlns:xlink="http://www.w3.org/1999/xlink" xmlns:svgjs="http://svgjs.dev/svgjs" width="2000" height="343" viewBox="0 0 2000 343"><g transform="matrix(1,0,0,1,-1.2121212121213603,-0.25145605024840734)"><svg viewBox="0 0 396 68" data-background-color="#ffffff" preserveAspectRatio="xMidYMid meet" height="343" width="2000" xmlns="http://www.w3.org/2000/svg" xmlns:xlink="http://www.w3.org/1999/xlink"><g id="tight-bounds" transform="matrix(1,0,0,1,0.24000000000003752,0.0498513452387499)"><svg viewBox="0 0 395.5199999999999 67.90029730952249" height="67.90029730952249" width="395.5199999999999"><g><svg viewBox="0 0 553.6344768278323 95.0443607843137" height="67.90029730952249" width="395.5199999999999"><g><rect width="8.528555762497254" height="95.0443607843137" x="127.25985885984487" y="0" fill="#010273" opacity="1" stroke-width="0" stroke="transparent" fill-opacity="1" class="rect-qz-0" data-fill-palette-color="primary" rx="1%" id="qz-0" data-palette-color="#010273"></rect></g><g transform="matrix(1,0,0,1,158.1144768278323,0.2364287581699287)"><svg viewBox="0 0 395.5199999999999 94.57150326797384" height="94.57150326797384" width="395.5199999999999"><g id="textblocktransform"><svg viewBox="0 0 395.5199999999999 94.57150326797384" height="94.57150326797384" width="395.5199999999999" id="textblock"><g><svg viewBox="0 0 395.5199999999999 94.57150326797384" height="94.57150326797384" width="395.5199999999999"><g transform="matrix(1,0,0,1,0,0)"><svg width="395.5199999999999" viewBox="1.75 -43.65 183.58 43.9" height="94.57150326797384" data-palette-color="#010273"><path d="M42.05-41.5Q43.6-41.2 44.38-40.45 45.15-39.7 45.15-38.7L45.15-38.7Q45.15-37.05 44.23-36.3 43.3-35.55 41.3-35.7L41.3-35.7Q36.8-36.05 34.27-36.18 31.75-36.3 27.65-36.35L27.65-36.35Q25.8-27.15 24.25-17.85L24.25-17.85Q23.7-14.45 23.1-9.98 22.5-5.5 22.3-2.75L22.3-2.75Q22.2-1.3 21.1-0.53 20 0.25 18.45 0.25L18.45 0.25Q16.8 0.25 15.9-0.55 15-1.35 15-2.65L15-2.65Q15-3.85 15.38-6.63 15.75-9.4 16.25-12.45L16.25-12.45Q16.8-15.5 17.1-17.75L17.1-17.75Q17.65-21.55 18.35-25.3 19.05-29.05 19.75-32.4L19.75-32.4Q19.9-33.15 20.1-34.13 20.3-35.1 20.55-36.3L20.55-36.3Q15.65-36.15 12.85-35.5 10.05-34.85 8.88-33.68 7.7-32.5 7.7-30.65L7.7-30.65Q7.7-28.95 8.7-27.4L8.7-27.4Q8.9-27.05 8.9-26.65L8.9-26.65Q8.9-25.7 7.78-24.88 6.65-24.05 5.45-24.05L5.45-24.05Q4.6-24.05 4.05-24.55L4.05-24.55Q3.05-25.4 2.4-26.98 1.75-28.55 1.75-30.55L1.75-30.55Q1.75-34.8 4.53-37.38 7.3-39.95 12.98-41.15 18.65-42.35 27.55-42.35L27.55-42.35Q33.05-42.35 36.33-42.15 39.6-41.95 42.05-41.5L42.05-41.5ZM42.3-26.6Q40.2-26.6 39.15-27.58 38.1-28.55 38.1-30.3L38.1-30.3Q38.1-32.05 39.47-33.23 40.85-34.4 42.9-34.4L42.9-34.4Q44.75-34.4 45.9-33.5 47.05-32.6 47.05-30.95L47.05-30.95Q47.05-28.95 45.75-27.78 44.45-26.6 42.3-26.6L42.3-26.6ZM41.9 0.25Q38.65 0.25 37.17-2.05 35.7-4.35 35.7-8.15L35.7-8.15Q35.7-10.4 36.27-13.93 36.85-17.45 37.75-20.5L37.75-20.5Q38.2-22.1 38.95-22.7 39.7-23.3 41.35-23.3L41.35-23.3Q43.9-23.3 43.9-21.6L43.9-21.6Q43.9-20.35 42.95-15.8L42.95-15.8Q41.75-10.3 41.75-8.35L41.75-8.35Q41.75-6.85 42.15-6.05 42.55-5.25 43.5-5.25L43.5-5.25Q44.4-5.25 45.75-6.5 47.1-7.75 49.35-10.45L49.35-10.45Q49.95-11.15 50.7-11.15L50.7-11.15Q51.35-11.15 51.72-10.55 52.1-9.95 52.1-8.9L52.1-8.9Q52.1-6.9 51.15-5.8L51.15-5.8Q46.2 0.25 41.9 0.25L41.9 0.25ZM51.6 0.25Q49.7 0.25 48.92-1.75 48.15-3.75 48.15-8.15L48.15-8.15Q48.15-14.65 50-20.5L50-20.5Q50.45-21.95 51.47-22.63 52.5-23.3 54.35-23.3L54.35-23.3Q55.35-23.3 55.75-23.05 56.15-22.8 56.15-22.1L56.15-22.1Q56.15-21.3 55.4-18.5L55.4-18.5Q54.9-16.5 54.6-15.03 54.3-13.55 54.1-11.35L54.1-11.35Q55.45-15.25 57.32-17.95 59.2-20.65 61.17-21.98 63.15-23.3 64.9-23.3L64.9-23.3Q66.65-23.3 67.37-22.5 68.1-21.7 68.1-20.05L68.1-20.05Q68.1-18.45 67.15-14.25L67.15-14.25Q66.75-12.45 66.6-11.55L66.6-11.55Q69.1-17.7 72.15-20.5 75.2-23.3 77.85-23.3L77.85-23.3Q81.1-23.3 81.1-20.05L81.1-20.05Q81.1-18.1 80-13L80-13Q79.05-8.65 79.05-7.25L79.05-7.25Q79.05-5.25 80.5-5.25L80.5-5.25Q81.5-5.25 82.87-6.48 84.25-7.7 86.55-10.45L86.55-10.45Q87.15-11.15 87.9-11.15L87.9-11.15Q88.55-11.15 88.92-10.55 89.3-9.95 89.3-8.9L89.3-8.9Q89.3-6.9 88.35-5.8L88.35-5.8Q86.2-3.15 83.72-1.45 81.25 0.25 78.1 0.25L78.1 0.25Q75.55 0.25 74.25-1.23 72.95-2.7 72.95-5.5L72.95-5.5Q72.95-6.9 73.65-10.5L73.65-10.5Q74.3-13.65 74.3-14.85L74.3-14.85Q74.3-15.65 73.75-15.65L73.75-15.65Q73.1-15.65 71.9-13.98 70.7-12.3 69.5-9.55 68.3-6.8 67.55-3.75L67.55-3.75Q67-1.35 66.27-0.55 65.55 0.25 63.95 0.25L63.95 0.25Q62.3 0.25 61.47-1.33 60.65-2.9 60.65-5.15L60.65-5.15Q60.65-7.05 61.15-10.65L61.15-10.65Q61.55-13.85 61.55-14.85L61.55-14.85Q61.55-15.65 61-15.65L61-15.65Q60.25-15.65 59.1-13.85 57.95-12.05 56.87-9.25 55.8-6.45 55.15-3.75L55.15-3.75Q54.6-1.4 53.87-0.58 53.15 0.25 51.6 0.25L51.6 0.25ZM107.54-11.15Q108.19-11.15 108.57-10.55 108.94-9.95 108.94-8.9L108.94-8.9Q108.94-6.9 107.99-5.8L107.99-5.8Q106.14-3.55 102.77-1.65 99.39 0.25 95.54 0.25L95.54 0.25Q90.29 0.25 87.39-2.6 84.49-5.45 84.49-10.4L84.49-10.4Q84.49-13.85 85.94-16.82 87.39-19.8 89.97-21.55 92.54-23.3 95.79-23.3L95.79-23.3Q98.69-23.3 100.44-21.58 102.19-19.85 102.19-16.9L102.19-16.9Q102.19-13.45 99.72-10.98 97.24-8.5 91.34-7.05L91.34-7.05Q92.59-4.75 96.09-4.75L96.09-4.75Q98.34-4.75 101.22-6.33 104.09-7.9 106.19-10.45L106.19-10.45Q106.79-11.15 107.54-11.15L107.54-11.15ZM94.94-18.4Q93.09-18.4 91.82-16.25 90.54-14.1 90.54-11.05L90.54-11.05 90.54-10.95Q93.49-11.65 95.19-13.05 96.89-14.45 96.89-16.3L96.89-16.3Q96.89-17.25 96.37-17.82 95.84-18.4 94.94-18.4L94.94-18.4ZM108.44 0.25Q106.54 0.25 105.77-1.75 104.99-3.75 104.99-8.15L104.99-8.15Q104.99-14.65 106.84-20.5L106.84-20.5Q107.29-21.95 108.32-22.63 109.34-23.3 111.19-23.3L111.19-23.3Q112.19-23.3 112.59-23.05 112.99-22.8 112.99-22.1L112.99-22.1Q112.99-21.3 112.24-18.5L112.24-18.5Q111.74-16.5 111.44-15 111.14-13.5 110.94-11.3L110.94-11.3Q112.59-15.6 114.64-18.3 116.69-21 118.67-22.15 120.64-23.3 122.29-23.3L122.29-23.3Q125.54-23.3 125.54-20.05L125.54-20.05Q125.54-18.1 124.44-13L124.44-13Q123.49-8.65 123.49-7.25L123.49-7.25Q123.49-5.25 124.94-5.25L124.94-5.25Q125.94-5.25 127.32-6.48 128.69-7.7 130.99-10.45L130.99-10.45Q131.59-11.15 132.34-11.15L132.34-11.15Q132.99-11.15 133.37-10.55 133.74-9.95 133.74-8.9L133.74-8.9Q133.74-6.9 132.79-5.8L132.79-5.8Q130.64-3.15 128.17-1.45 125.69 0.25 122.54 0.25L122.54 0.25Q119.99 0.25 118.69-1.23 117.39-2.7 117.39-5.5L117.39-5.5Q117.39-6.9 118.09-10.5L118.09-10.5Q118.74-13.65 118.74-14.85L118.74-14.85Q118.74-15.65 118.19-15.65L118.19-15.65Q117.54-15.65 116.37-13.98 115.19-12.3 113.97-9.55 112.74-6.8 111.99-3.75L111.99-3.75Q111.44-1.4 110.72-0.58 109.99 0.25 108.44 0.25L108.44 0.25ZM136.24-26.6Q134.14-26.6 133.09-27.58 132.04-28.55 132.04-30.3L132.04-30.3Q132.04-32.05 133.41-33.23 134.79-34.4 136.84-34.4L136.84-34.4Q138.69-34.4 139.84-33.5 140.99-32.6 140.99-30.95L140.99-30.95Q140.99-28.95 139.69-27.78 138.39-26.6 136.24-26.6L136.24-26.6ZM135.84 0.25Q132.59 0.25 131.11-2.05 129.64-4.35 129.64-8.15L129.64-8.15Q129.64-10.4 130.21-13.93 130.79-17.45 131.69-20.5L131.69-20.5Q132.14-22.1 132.89-22.7 133.64-23.3 135.29-23.3L135.29-23.3Q137.84-23.3 137.84-21.6L137.84-21.6Q137.84-20.35 136.89-15.8L136.89-15.8Q135.69-10.3 135.69-8.35L135.69-8.35Q135.69-6.85 136.09-6.05 136.49-5.25 137.44-5.25L137.44-5.25Q138.34-5.25 139.69-6.5 141.04-7.75 143.29-10.45L143.29-10.45Q143.89-11.15 144.64-11.15L144.64-11.15Q145.29-11.15 145.66-10.55 146.04-9.95 146.04-8.9L146.04-8.9Q146.04-6.9 145.09-5.8L145.09-5.8Q140.14 0.25 135.84 0.25L135.84 0.25ZM164.29-11.15Q164.94-11.15 165.31-10.55 165.69-9.95 165.69-8.9L165.69-8.9Q165.69-6.9 164.74-5.8L164.74-5.8Q162.59-3.15 160.04-1.45 157.49 0.25 154.19 0.25L154.19 0.25Q143.99 0.25 143.99-14.1L143.99-14.1Q143.99-16.3 144.14-18.55L144.14-18.55 142.19-18.55Q140.69-18.55 140.16-19.1 139.64-19.65 139.64-20.85L139.64-20.85Q139.64-23.65 141.89-23.65L141.89-23.65 144.74-23.65Q145.59-29.15 147.34-33.7 149.09-38.25 151.56-40.95 154.04-43.65 156.89-43.65L156.89-43.65Q158.99-43.65 160.19-41.8 161.39-39.95 161.39-37.15L161.39-37.15Q161.39-29.4 154.89-23.65L154.89-23.65 160.49-23.65Q161.29-23.65 161.64-23.3 161.99-22.95 161.99-22L161.99-22Q161.99-18.55 156.34-18.55L156.34-18.55 150.24-18.55Q150.14-16.05 150.14-14.65L150.14-14.65Q150.14-9.45 151.36-7.35 152.59-5.25 155.24-5.25L155.24-5.25Q157.39-5.25 159.04-6.55 160.69-7.85 162.94-10.45L162.94-10.45Q163.54-11.15 164.29-11.15L164.29-11.15ZM155.54-38.85Q154.79-38.85 153.86-36.98 152.94-35.1 152.11-31.78 151.29-28.45 150.74-24.4L150.74-24.4Q153.69-26.95 155.16-30.13 156.64-33.3 156.64-35.9L156.64-35.9Q156.64-38.85 155.54-38.85L155.54-38.85ZM183.93-11.15Q184.58-11.15 184.96-10.55 185.33-9.95 185.33-8.9L185.33-8.9Q185.33-6.9 184.38-5.8L184.38-5.8Q182.53-3.55 179.16-1.65 175.78 0.25 171.93 0.25L171.93 0.25Q166.68 0.25 163.78-2.6 160.88-5.45 160.88-10.4L160.88-10.4Q160.88-13.85 162.33-16.82 163.78-19.8 166.36-21.55 168.93-23.3 172.18-23.3L172.18-23.3Q175.08-23.3 176.83-21.58 178.58-19.85 178.58-16.9L178.58-16.9Q178.58-13.45 176.11-10.98 173.63-8.5 167.73-7.05L167.73-7.05Q168.98-4.75 172.48-4.75L172.48-4.75Q174.73-4.75 177.61-6.33 180.48-7.9 182.58-10.45L182.58-10.45Q183.18-11.15 183.93-11.15L183.93-11.15ZM171.33-18.4Q169.48-18.4 168.21-16.25 166.93-14.1 166.93-11.05L166.93-11.05 166.93-10.95Q169.88-11.65 171.58-13.05 173.28-14.45 173.28-16.3L173.28-16.3Q173.28-17.25 172.76-17.82 172.23-18.4 171.33-18.4L171.33-18.4Z" opacity="1" transform="matrix(1,0,0,1,0,0)" fill="#010273" class="wordmark-text-0" data-fill-palette-color="primary" id="text-0"></path></svg></g></svg></g></svg></g></svg></g><g transform="matrix(1,0,0,1,0,0.2364287581699287)"><svg viewBox="0 0 104.93379665435468 94.57150326797384" height="94.57150326797384" width="104.93379665435468"><g><svg xmlns="http://www.w3.org/2000/svg" xmlns:xlink="http://www.w3.org/1999/xlink" version="1.1" x="0" y="0" viewBox="5.003250000000008 8.908 90.31575000000001 81.397" enable-background="new 0 0 100 100" xml:space="preserve" height="94.57150326797384" width="104.93379665435468" class="icon-icon-0" data-fill-palette-color="accent" id="icon-0"><path d="M54.621 8.908c-1.974 0-3.575 1.602-3.575 3.578 0 1.976 1.602 3.578 3.575 3.578 18.493 0 33.54 15.047 33.54 33.543 0 18.495-15.047 33.542-33.54 33.542-16.971 0-31.03-12.676-33.23-29.056l2.504 2.505c0.699 0.699 1.614 1.047 2.53 1.047 0.916 0 1.831-0.348 2.53-1.047 1.397-1.398 1.397-3.663 0-5.061l-8.922-8.922c-1.397-1.397-3.663-1.397-5.06 0l-8.922 8.922c-1.397 1.397-1.397 3.662 0 5.061 1.397 1.396 3.663 1.396 5.061 0l3.012-3.012c2.007 20.579 19.403 36.719 40.498 36.719 22.439 0 40.697-18.258 40.697-40.698C95.318 27.166 77.061 8.908 54.621 8.908z" fill="#010273" data-fill-palette-color="accent"></path><circle cx="69.431" cy="29.083" r="3.4" fill="#010273" data-fill-palette-color="accent"></circle><circle cx="76.173" cy="48.166" r="3.4" fill="#010273" data-fill-palette-color="accent"></circle><circle cx="69.431" cy="66.708" r="3.4" fill="#010273" data-fill-palette-color="accent"></circle><circle cx="54.105" cy="76.822" r="3.4" fill="#010273" data-fill-palette-color="accent"></circle><path d="M41.141 69.414c-0.971 0-1.941-0.369-2.682-1.11-1.481-1.481-1.482-3.883-0.001-5.364l11.856-11.86V27.108c0-2.095 1.698-3.793 3.791-3.793 2.094 0 3.79 1.698 3.79 3.793v25.541c0 1.006-0.398 1.97-1.109 2.682L43.823 68.303C43.083 69.043 42.112 69.414 41.141 69.414z" fill="#010273" data-fill-palette-color="accent"></path></svg></g></svg></g></svg></g><defs></defs></svg><rect width="395.5199999999999" height="67.90029730952249" fill="none" stroke="none" visibility="hidden"></rect></g></svg></g></svg>